<mxfile host="app.diagrams.net" modified="2021-03-11T03:03:21.184Z" agent="5.0 (Windows NT 10.0; WOW64) AppleWebKit/537.36 (KHTML, like Gecko) Chrome/88.0.4324.150 Safari/537.36" etag="O2hCrPnp854IcL7ckqWT" version="14.4.2" type="github">
  <diagram id="DJhPyXhepAGhyEQUk76p" name="Page-1">
    <mxGraphModel dx="1422" dy="706" grid="1" gridSize="10" guides="1" tooltips="1" connect="1" arrows="1" fold="1" page="1" pageScale="1" pageWidth="827" pageHeight="1169" math="0" shadow="0">
      <root>
        <mxCell id="0" />
        <mxCell id="1" parent="0" />
        <mxCell id="2O0J_4MITaPgvCGDndi2-1" value="单个工分删除" style="swimlane;html=1;childLayout=stackLayout;resizeParent=1;resizeParentMax=0;startSize=20;fillColor=#d5e8d4;strokeColor=#82b366;" vertex="1" parent="1">
          <mxGeometry x="230" y="310" width="720" height="1180" as="geometry" />
        </mxCell>
        <mxCell id="2O0J_4MITaPgvCGDndi2-2" value="" style="endArrow=classic;html=1;exitX=1;exitY=0.5;exitDx=0;exitDy=0;entryX=0;entryY=0.5;entryDx=0;entryDy=0;" edge="1" parent="2O0J_4MITaPgvCGDndi2-1">
          <mxGeometry width="50" height="50" relative="1" as="geometry">
            <mxPoint x="200" y="310" as="sourcePoint" />
            <mxPoint x="270" y="310" as="targetPoint" />
          </mxGeometry>
        </mxCell>
        <mxCell id="2O0J_4MITaPgvCGDndi2-3" value="数据验证通过" style="edgeLabel;html=1;align=center;verticalAlign=middle;resizable=0;points=[];" vertex="1" connectable="0" parent="2O0J_4MITaPgvCGDndi2-2">
          <mxGeometry x="-0.2348" relative="1" as="geometry">
            <mxPoint as="offset" />
          </mxGeometry>
        </mxCell>
        <mxCell id="2O0J_4MITaPgvCGDndi2-4" value="激励系统前端" style="swimlane;html=1;startSize=20;fillColor=#f5f5f5;strokeColor=#666666;fontColor=#333333;" vertex="1" parent="2O0J_4MITaPgvCGDndi2-1">
          <mxGeometry y="20" width="260" height="1160" as="geometry" />
        </mxCell>
        <mxCell id="2O0J_4MITaPgvCGDndi2-5" value="点击【删除】按钮" style="rounded=0;whiteSpace=wrap;html=1;fontFamily=Helvetica;fontSize=12;fontColor=#333333;align=center;fillColor=#f5f5f5;strokeColor=#666666;" vertex="1" parent="2O0J_4MITaPgvCGDndi2-4">
          <mxGeometry x="70" y="44" width="120" height="60" as="geometry" />
        </mxCell>
        <mxCell id="2O0J_4MITaPgvCGDndi2-6" value="" style="endArrow=classic;html=1;entryX=0.5;entryY=0;entryDx=0;entryDy=0;exitX=0.5;exitY=1;exitDx=0;exitDy=0;" edge="1" parent="2O0J_4MITaPgvCGDndi2-4">
          <mxGeometry width="50" height="50" relative="1" as="geometry">
            <mxPoint x="130" y="210" as="sourcePoint" />
            <mxPoint x="130" y="230" as="targetPoint" />
          </mxGeometry>
        </mxCell>
        <mxCell id="2O0J_4MITaPgvCGDndi2-7" value="数据验证不通过" style="edgeStyle=orthogonalEdgeStyle;rounded=0;orthogonalLoop=1;jettySize=auto;html=1;exitX=0.5;exitY=1;exitDx=0;exitDy=0;entryX=0.5;entryY=0;entryDx=0;entryDy=0;" edge="1" parent="2O0J_4MITaPgvCGDndi2-4">
          <mxGeometry relative="1" as="geometry">
            <mxPoint x="130" y="330" as="sourcePoint" />
          </mxGeometry>
        </mxCell>
        <mxCell id="2O0J_4MITaPgvCGDndi2-8" value="提示删除成功" style="rounded=0;whiteSpace=wrap;html=1;fontFamily=Helvetica;fontSize=12;fontColor=#333333;align=center;fillColor=#f5f5f5;strokeColor=#666666;" vertex="1" parent="2O0J_4MITaPgvCGDndi2-4">
          <mxGeometry x="70" y="980" width="120" height="60" as="geometry" />
        </mxCell>
        <mxCell id="2O0J_4MITaPgvCGDndi2-9" value="提示数据库异常，请稍后重试" style="rounded=0;whiteSpace=wrap;html=1;fontFamily=Helvetica;fontSize=12;fontColor=#333333;align=center;fillColor=#f5f5f5;strokeColor=#666666;" vertex="1" parent="2O0J_4MITaPgvCGDndi2-4">
          <mxGeometry x="70" y="1080" width="120" height="60" as="geometry" />
        </mxCell>
        <mxCell id="2O0J_4MITaPgvCGDndi2-10" value="激励系统后端" style="swimlane;html=1;startSize=20;fillColor=#dae8fc;strokeColor=#6c8ebf;" vertex="1" parent="2O0J_4MITaPgvCGDndi2-1">
          <mxGeometry x="260" y="20" width="250" height="1160" as="geometry" />
        </mxCell>
        <mxCell id="2O0J_4MITaPgvCGDndi2-11" value="事务提交结果" style="rhombus;whiteSpace=wrap;html=1;fillColor=#f8cecc;strokeColor=#b85450;" vertex="1" parent="2O0J_4MITaPgvCGDndi2-10">
          <mxGeometry x="55" y="970" width="140" height="80" as="geometry" />
        </mxCell>
        <mxCell id="2O0J_4MITaPgvCGDndi2-12" value="根据流水ID查询流水信息" style="rounded=0;whiteSpace=wrap;html=1;fontFamily=Helvetica;fontSize=12;align=center;fillColor=#dae8fc;strokeColor=#6c8ebf;" vertex="1" parent="2O0J_4MITaPgvCGDndi2-10">
          <mxGeometry x="55" y="44" width="140" height="60" as="geometry" />
        </mxCell>
        <mxCell id="2O0J_4MITaPgvCGDndi2-13" value="根据流水信息中的任务名查询任务日工分明细" style="rounded=0;whiteSpace=wrap;html=1;fontFamily=Helvetica;fontSize=12;align=center;fillColor=#dae8fc;strokeColor=#6c8ebf;" vertex="1" parent="2O0J_4MITaPgvCGDndi2-10">
          <mxGeometry x="55" y="140" width="140" height="60" as="geometry" />
        </mxCell>
        <mxCell id="2O0J_4MITaPgvCGDndi2-14" style="edgeStyle=orthogonalEdgeStyle;rounded=0;orthogonalLoop=1;jettySize=auto;html=1;exitX=0.5;exitY=1;exitDx=0;exitDy=0;entryX=0.5;entryY=0;entryDx=0;entryDy=0;" edge="1" parent="2O0J_4MITaPgvCGDndi2-10" source="2O0J_4MITaPgvCGDndi2-15" target="2O0J_4MITaPgvCGDndi2-16">
          <mxGeometry relative="1" as="geometry" />
        </mxCell>
        <mxCell id="2O0J_4MITaPgvCGDndi2-15" value="根据任务日工分明细查询出任务对应的日工分" style="rounded=0;whiteSpace=wrap;html=1;fontFamily=Helvetica;fontSize=12;align=center;fillColor=#dae8fc;strokeColor=#6c8ebf;" vertex="1" parent="2O0J_4MITaPgvCGDndi2-10">
          <mxGeometry x="55" y="240" width="140" height="60" as="geometry" />
        </mxCell>
        <mxCell id="2O0J_4MITaPgvCGDndi2-16" value="根据任务对应的日工分计算出任务对应的月工分" style="rounded=0;whiteSpace=wrap;html=1;fontFamily=Helvetica;fontSize=12;align=center;fillColor=#dae8fc;strokeColor=#6c8ebf;" vertex="1" parent="2O0J_4MITaPgvCGDndi2-10">
          <mxGeometry x="55" y="340" width="140" height="60" as="geometry" />
        </mxCell>
        <mxCell id="2O0J_4MITaPgvCGDndi2-17" value="事务提交成功" style="edgeStyle=orthogonalEdgeStyle;rounded=0;orthogonalLoop=1;jettySize=auto;html=1;exitX=0;exitY=0.5;exitDx=0;exitDy=0;entryX=1;entryY=0.5;entryDx=0;entryDy=0;" edge="1" parent="2O0J_4MITaPgvCGDndi2-1" source="2O0J_4MITaPgvCGDndi2-11" target="2O0J_4MITaPgvCGDndi2-8">
          <mxGeometry relative="1" as="geometry">
            <mxPoint x="335" y="1030" as="sourcePoint" />
          </mxGeometry>
        </mxCell>
        <mxCell id="2O0J_4MITaPgvCGDndi2-18" value="事务提交失败" style="edgeStyle=orthogonalEdgeStyle;rounded=0;orthogonalLoop=1;jettySize=auto;html=1;exitX=0.5;exitY=1;exitDx=0;exitDy=0;entryX=1;entryY=0.5;entryDx=0;entryDy=0;" edge="1" parent="2O0J_4MITaPgvCGDndi2-1" source="2O0J_4MITaPgvCGDndi2-11" target="2O0J_4MITaPgvCGDndi2-9">
          <mxGeometry relative="1" as="geometry">
            <mxPoint x="405" y="1070" as="sourcePoint" />
          </mxGeometry>
        </mxCell>
        <mxCell id="2O0J_4MITaPgvCGDndi2-19" style="edgeStyle=orthogonalEdgeStyle;rounded=0;orthogonalLoop=1;jettySize=auto;html=1;exitX=0.5;exitY=1;exitDx=0;exitDy=0;entryX=1;entryY=0.5;entryDx=0;entryDy=0;" edge="1" parent="2O0J_4MITaPgvCGDndi2-1" source="2O0J_4MITaPgvCGDndi2-31" target="2O0J_4MITaPgvCGDndi2-11">
          <mxGeometry relative="1" as="geometry" />
        </mxCell>
        <mxCell id="2O0J_4MITaPgvCGDndi2-20" value="激励系统DB" style="swimlane;html=1;startSize=20;fillColor=#e1d5e7;strokeColor=#9673a6;" vertex="1" parent="2O0J_4MITaPgvCGDndi2-1">
          <mxGeometry x="510" y="20" width="210" height="1160" as="geometry" />
        </mxCell>
        <mxCell id="2O0J_4MITaPgvCGDndi2-21" style="edgeStyle=orthogonalEdgeStyle;rounded=0;orthogonalLoop=1;jettySize=auto;html=1;exitX=0.5;exitY=1;exitDx=0;exitDy=0;" edge="1" parent="2O0J_4MITaPgvCGDndi2-20" source="2O0J_4MITaPgvCGDndi2-22" target="2O0J_4MITaPgvCGDndi2-24">
          <mxGeometry relative="1" as="geometry" />
        </mxCell>
        <mxCell id="2O0J_4MITaPgvCGDndi2-22" value="修改TB_KPICTL_RECORD表中id=流水id的记录的is_delete=1" style="rounded=0;whiteSpace=wrap;html=1;fontFamily=Helvetica;fontSize=12;align=center;fillColor=#e1d5e7;strokeColor=#9673a6;" vertex="1" parent="2O0J_4MITaPgvCGDndi2-20">
          <mxGeometry x="20" y="480" width="170" height="60" as="geometry" />
        </mxCell>
        <mxCell id="2O0J_4MITaPgvCGDndi2-23" style="edgeStyle=orthogonalEdgeStyle;rounded=0;orthogonalLoop=1;jettySize=auto;html=1;exitX=0.5;exitY=1;exitDx=0;exitDy=0;entryX=0.5;entryY=0;entryDx=0;entryDy=0;" edge="1" parent="2O0J_4MITaPgvCGDndi2-20" source="2O0J_4MITaPgvCGDndi2-24" target="2O0J_4MITaPgvCGDndi2-26">
          <mxGeometry relative="1" as="geometry" />
        </mxCell>
        <mxCell id="2O0J_4MITaPgvCGDndi2-24" value="修改TB_KPICTL_DAY_RECORD表中record_id = 流水id的记录的is_delete=1" style="rounded=0;whiteSpace=wrap;html=1;fontFamily=Helvetica;fontSize=12;align=center;fillColor=#e1d5e7;strokeColor=#9673a6;" vertex="1" parent="2O0J_4MITaPgvCGDndi2-20">
          <mxGeometry x="20" y="590" width="170" height="60" as="geometry" />
        </mxCell>
        <mxCell id="2O0J_4MITaPgvCGDndi2-25" style="edgeStyle=orthogonalEdgeStyle;rounded=0;orthogonalLoop=1;jettySize=auto;html=1;exitX=0.5;exitY=1;exitDx=0;exitDy=0;entryX=0.5;entryY=0;entryDx=0;entryDy=0;" edge="1" parent="2O0J_4MITaPgvCGDndi2-20" source="2O0J_4MITaPgvCGDndi2-26" target="2O0J_4MITaPgvCGDndi2-28">
          <mxGeometry relative="1" as="geometry" />
        </mxCell>
        <mxCell id="2O0J_4MITaPgvCGDndi2-26" value="根据日期修改TB_KPICTL_DAY_SCORE记录" style="rounded=0;whiteSpace=wrap;html=1;fontFamily=Helvetica;fontSize=12;align=center;fillColor=#e1d5e7;strokeColor=#9673a6;" vertex="1" parent="2O0J_4MITaPgvCGDndi2-20">
          <mxGeometry x="20" y="710" width="170" height="60" as="geometry" />
        </mxCell>
        <mxCell id="2O0J_4MITaPgvCGDndi2-27" style="edgeStyle=orthogonalEdgeStyle;rounded=0;orthogonalLoop=1;jettySize=auto;html=1;exitX=0.5;exitY=1;exitDx=0;exitDy=0;entryX=0.5;entryY=0;entryDx=0;entryDy=0;" edge="1" parent="2O0J_4MITaPgvCGDndi2-20" source="2O0J_4MITaPgvCGDndi2-28" target="2O0J_4MITaPgvCGDndi2-31">
          <mxGeometry relative="1" as="geometry" />
        </mxCell>
        <mxCell id="2O0J_4MITaPgvCGDndi2-28" value="根据月份修改TB_KPICTL_MONTH_SCORE记录" style="rounded=0;whiteSpace=wrap;html=1;fontFamily=Helvetica;fontSize=12;align=center;fillColor=#e1d5e7;strokeColor=#9673a6;" vertex="1" parent="2O0J_4MITaPgvCGDndi2-20">
          <mxGeometry x="20" y="820" width="170" height="50" as="geometry" />
        </mxCell>
        <mxCell id="2O0J_4MITaPgvCGDndi2-29" style="edgeStyle=orthogonalEdgeStyle;rounded=0;orthogonalLoop=1;jettySize=auto;html=1;exitX=0.5;exitY=1;exitDx=0;exitDy=0;" edge="1" parent="2O0J_4MITaPgvCGDndi2-20" source="2O0J_4MITaPgvCGDndi2-30" target="2O0J_4MITaPgvCGDndi2-22">
          <mxGeometry relative="1" as="geometry" />
        </mxCell>
        <mxCell id="2O0J_4MITaPgvCGDndi2-30" value="开始事务" style="rounded=0;whiteSpace=wrap;html=1;fontFamily=Helvetica;fontSize=12;align=center;fillColor=#e1d5e7;strokeColor=#9673a6;" vertex="1" parent="2O0J_4MITaPgvCGDndi2-20">
          <mxGeometry x="20" y="400" width="170" height="30" as="geometry" />
        </mxCell>
        <mxCell id="2O0J_4MITaPgvCGDndi2-31" value="提交事务" style="rounded=0;whiteSpace=wrap;html=1;fontFamily=Helvetica;fontSize=12;align=center;fillColor=#e1d5e7;strokeColor=#9673a6;" vertex="1" parent="2O0J_4MITaPgvCGDndi2-20">
          <mxGeometry x="20" y="920" width="170" height="30" as="geometry" />
        </mxCell>
        <mxCell id="2O0J_4MITaPgvCGDndi2-32" value="根据id查询TB_KPICTL_RECORD记录" style="rounded=0;whiteSpace=wrap;html=1;fontFamily=Helvetica;fontSize=12;align=center;fillColor=#e1d5e7;strokeColor=#9673a6;" vertex="1" parent="2O0J_4MITaPgvCGDndi2-20">
          <mxGeometry x="20" y="44" width="170" height="60" as="geometry" />
        </mxCell>
        <mxCell id="2O0J_4MITaPgvCGDndi2-33" value="根据record_id查询TB_KPICTL_DAY_RECORD记录" style="rounded=0;whiteSpace=wrap;html=1;fontFamily=Helvetica;fontSize=12;align=center;fillColor=#e1d5e7;strokeColor=#9673a6;" vertex="1" parent="2O0J_4MITaPgvCGDndi2-20">
          <mxGeometry x="20" y="140" width="170" height="60" as="geometry" />
        </mxCell>
        <mxCell id="2O0J_4MITaPgvCGDndi2-34" value="" style="endArrow=classic;html=1;entryX=0;entryY=0.5;entryDx=0;entryDy=0;" edge="1" parent="2O0J_4MITaPgvCGDndi2-1" source="2O0J_4MITaPgvCGDndi2-5" target="2O0J_4MITaPgvCGDndi2-12">
          <mxGeometry width="50" height="50" relative="1" as="geometry">
            <mxPoint x="326" y="24" as="sourcePoint" />
            <mxPoint x="575" y="94" as="targetPoint" />
          </mxGeometry>
        </mxCell>
        <mxCell id="2O0J_4MITaPgvCGDndi2-35" value="" style="endArrow=classic;html=1;exitX=1;exitY=0.5;exitDx=0;exitDy=0;entryX=0;entryY=0.5;entryDx=0;entryDy=0;rounded=0;" edge="1" parent="2O0J_4MITaPgvCGDndi2-1" source="2O0J_4MITaPgvCGDndi2-12" target="2O0J_4MITaPgvCGDndi2-32">
          <mxGeometry width="50" height="50" relative="1" as="geometry">
            <mxPoint x="615" y="124" as="sourcePoint" />
            <mxPoint x="106" y="184" as="targetPoint" />
            <Array as="points" />
          </mxGeometry>
        </mxCell>
        <mxCell id="2O0J_4MITaPgvCGDndi2-36" value="" style="endArrow=classic;html=1;exitX=0.5;exitY=1;exitDx=0;exitDy=0;entryX=1;entryY=0.5;entryDx=0;entryDy=0;rounded=0;" edge="1" parent="2O0J_4MITaPgvCGDndi2-1">
          <mxGeometry width="50" height="50" relative="1" as="geometry">
            <mxPoint x="321" y="394" as="sourcePoint" />
            <mxPoint x="190" y="425" as="targetPoint" />
            <Array as="points">
              <mxPoint x="385" y="425" />
            </Array>
          </mxGeometry>
        </mxCell>
        <mxCell id="2O0J_4MITaPgvCGDndi2-37" value="数据验证不通过" style="edgeLabel;html=1;align=center;verticalAlign=middle;resizable=0;points=[];" vertex="1" connectable="0" parent="2O0J_4MITaPgvCGDndi2-36">
          <mxGeometry x="-0.8" y="2" relative="1" as="geometry">
            <mxPoint as="offset" />
          </mxGeometry>
        </mxCell>
        <mxCell id="2O0J_4MITaPgvCGDndi2-38" style="edgeStyle=orthogonalEdgeStyle;rounded=0;orthogonalLoop=1;jettySize=auto;html=1;exitX=1;exitY=0.5;exitDx=0;exitDy=0;entryX=0;entryY=0.5;entryDx=0;entryDy=0;" edge="1" parent="2O0J_4MITaPgvCGDndi2-1">
          <mxGeometry relative="1" as="geometry">
            <mxPoint x="455" y="310" as="sourcePoint" />
          </mxGeometry>
        </mxCell>
        <mxCell id="2O0J_4MITaPgvCGDndi2-39" value="数据验证通过" style="edgeLabel;html=1;align=center;verticalAlign=middle;resizable=0;points=[];" vertex="1" connectable="0" parent="2O0J_4MITaPgvCGDndi2-38">
          <mxGeometry x="-0.097" relative="1" as="geometry">
            <mxPoint as="offset" />
          </mxGeometry>
        </mxCell>
        <mxCell id="2O0J_4MITaPgvCGDndi2-40" style="edgeStyle=orthogonalEdgeStyle;rounded=0;orthogonalLoop=1;jettySize=auto;html=1;exitX=0.5;exitY=1;exitDx=0;exitDy=0;entryX=0.5;entryY=0;entryDx=0;entryDy=0;" edge="1" parent="2O0J_4MITaPgvCGDndi2-1" source="2O0J_4MITaPgvCGDndi2-32" target="2O0J_4MITaPgvCGDndi2-13">
          <mxGeometry relative="1" as="geometry">
            <Array as="points">
              <mxPoint x="615" y="140" />
              <mxPoint x="385" y="140" />
            </Array>
          </mxGeometry>
        </mxCell>
        <mxCell id="2O0J_4MITaPgvCGDndi2-41" style="edgeStyle=orthogonalEdgeStyle;rounded=0;orthogonalLoop=1;jettySize=auto;html=1;exitX=1;exitY=0.5;exitDx=0;exitDy=0;entryX=0;entryY=0.5;entryDx=0;entryDy=0;" edge="1" parent="2O0J_4MITaPgvCGDndi2-1" source="2O0J_4MITaPgvCGDndi2-13" target="2O0J_4MITaPgvCGDndi2-33">
          <mxGeometry relative="1" as="geometry" />
        </mxCell>
        <mxCell id="2O0J_4MITaPgvCGDndi2-42" style="edgeStyle=orthogonalEdgeStyle;rounded=0;orthogonalLoop=1;jettySize=auto;html=1;exitX=0.5;exitY=1;exitDx=0;exitDy=0;" edge="1" parent="2O0J_4MITaPgvCGDndi2-1" source="2O0J_4MITaPgvCGDndi2-33" target="2O0J_4MITaPgvCGDndi2-15">
          <mxGeometry relative="1" as="geometry" />
        </mxCell>
        <mxCell id="2O0J_4MITaPgvCGDndi2-43" style="edgeStyle=orthogonalEdgeStyle;rounded=0;orthogonalLoop=1;jettySize=auto;html=1;exitX=1;exitY=0.5;exitDx=0;exitDy=0;entryX=0.5;entryY=0;entryDx=0;entryDy=0;" edge="1" parent="2O0J_4MITaPgvCGDndi2-1" source="2O0J_4MITaPgvCGDndi2-16" target="2O0J_4MITaPgvCGDndi2-30">
          <mxGeometry relative="1" as="geometry" />
        </mxCell>
        <mxCell id="2O0J_4MITaPgvCGDndi2-44" style="edgeStyle=orthogonalEdgeStyle;rounded=0;orthogonalLoop=1;jettySize=auto;html=1;entryX=0;entryY=0.5;entryDx=0;entryDy=0;" edge="1" parent="1" source="2O0J_4MITaPgvCGDndi2-45" target="2O0J_4MITaPgvCGDndi2-5">
          <mxGeometry relative="1" as="geometry" />
        </mxCell>
        <mxCell id="2O0J_4MITaPgvCGDndi2-45" value="用户" style="shape=umlActor;verticalLabelPosition=bottom;verticalAlign=top;html=1;outlineConnect=0;" vertex="1" parent="1">
          <mxGeometry x="150" y="374" width="30" height="60" as="geometry" />
        </mxCell>
      </root>
    </mxGraphModel>
  </diagram>
</mxfile>
